<!--?xml version="1.0" encoding="utf-8"?-->
<!-- Generator: Adobe Illustrator 22.1.0, SVG Export Plug-In . SVG Version: 6.00 Build 0)  -->
<svg version="1.1" id="_x35_" xmlns="http://www.w3.org/2000/svg" xmlns:xlink="http://www.w3.org/1999/xlink" x="0px" y="0px" viewBox="0 0 800 610.804" style="enable-background:new 0 0 800 610.804;" xml:space="preserve">
<style type="text/css">
	.st0{fill:#040000;}
</style>
<g>
	<path class="st0" d="M4.781,1.849c12.815,9.885,138.561,62.999,163.25,69.146c24.689,6.148,44.603,59.745,49.039,61.433
		c4.424,1.664,15.696,4.026,22.64,3.473c6.956-0.519,17.975,4.255,25.822,6.279c7.847,2.003,3.989,17.613,11.947,18.409
		c7.981,0.795,10.017,3.447,11.066,15.84c5.702,0.567,13.838,11.212,16.395,20.071c7.955,0.796,9.511,8.329,15.261,19.963
		c5.92-1.868,11.669,9.764,8.414,19.264c-3.242,9.523,14.659,60.479,24.906,61.504c10.247,1.012,28.293-64.795,16.371-106.543
		c-11.922-41.746,66.303-76.958,94.596-83.987C492.78,99.699,623.48,68.488,643.924,59.46c20.457-9.03,27.522-10.789,31.584-5.461
		c4.075,5.34-8.282,13.923-8.402,15.153c8.692-6.509,22.579-7.583,27.8-2.146c5.208,5.437-18.239,21.53-12.309,19.662
		c5.919-1.856,29.909-11.765,29.717,1.736c-0.109,7.51-8.464,12.223-15.878,14.985c4.184-0.157,8.378,1.169,10.283,6.594
		c4.472,12.729-16.985,20.42-25.159,33.126c4.497,12.743-23.194,13.671-19.746,25.075c3.473,11.404-26.894,4.677-20.155,17.661
		c5.618,12.85-4.219,19.239-28.064,27.932c8.619,5.762,4.761,21.373-10.994,29.618c5.075,6.666-1.699,17.045-24.303,24.628
		c0.036,11.066-5.894,12.934-21.048,15.105c1.061,12.392-20.819,12.67-31.777,18.951c0,0,5.124,17.732-2.555,25.569
		c1.904,3.869,1.181,11.174-6.257,16.575c4.316,2.893,3.593,10.199-2.832,16.938c5.436,3.002,6.256,17.818-2.557,25.556
		c7.727,3.22,12.863,20.952,12.863,20.952s24.519,30.716,41.758,42.264c17.251,11.549,60.3,29.366,85.988,36.84
		c25.69,7.475,21.025,8.257,10.657,8.452c-10.367,0.18-38.696-3.858-53.38-6.546c16.6,6.557,175.798,47.014,188.842,54.464
		c-56.744,4.171-208.143-45.339-200.547-40.891c7.619,4.436,103.07,38.54,93.835,38.853c-39.54,4.665-119.766-43.905-102.769-29.921
		c18.01,15.322,75.138,41.915,61.468,40.553c-49.835-7.426-150.965-73.909-153.049-74.572c-2.097-0.663,0,0-9.126,5.075
		c-9.125,5.087-19.986-7.053-22.144-2.664c-2.171,4.4-13.068,40.167-19.385,47.377c-6.329,7.208-6.799-1.121-10.368,4.508
		c-3.58,5.63,0,12.91,5.678,20.843c5.666,7.943,8.535,22.531,7.017,33.428c-1.52,10.91-6.558,9.499-6.558,9.499
		s-4.677,3.677-6.426,3.954c-1.76,0.29,1.448-5.846,1.448-5.846s0.288-7.341,3.218-10.741c2.929-3.387-5.063-22.627-7.111-23.748
		c-2.038-1.133-13.467,9.716-16.01,13.598c-2.544,3.906-1.411,14.165-2.628,17.721c-1.217,3.568-5.582,4.062-7.74,8.45
		c-2.158,4.401,3.69,10.5,0.652,10.656c-3.027,0.182-6.594-11.717-6.462-13.08c0.145-1.362-0.856-4.243,0.217-10.584
		c1.049-6.352,6.354-11.813,6.354-11.813l-9.946,4.545c0,0-2.231,0.698-4.412,0.952c-2.17,0.229,1.362-4.943,5.027-11.489
		c3.676-6.545,19.662-15.563,24.762-27.955c5.135-12.405,0.855-25.713-4.377-29.475c-5.232-3.749-16.611-27.932-19.963-33.333
		c-3.315-5.413,0.82,22.205,0.506,29.548c-0.289,7.354-16.178,19.589-17.793,27.268c-1.629,7.667,6.136,7.51,10.404,7.945
		c4.278,0.422,5.81,6.57,7.003,7.606c1.193,1.049,4.051,2.712,3.206,6.787c-0.844,4.05-5.605-4.243-7.836-3.544
		c-2.229,0.698-9.547-3.726-11.295-3.436c-1.76,0.277-5.316,10.066-5.641,13.261c-0.314,3.195,0.35,13.862-0.772,16.528
		c-1.134,2.628-2.304,5.75-3.291,7.027c-0.989,1.303-0.133,5.522,2.881,9.97c3.001,4.459-7.933-2.629-9.367-5.533
		c-1.434-2.906-2.266-7.607-2.82-6.281c-0.566,1.326-2.448,7.136-5.087,7.787c-2.653,0.664-4.485,6.016-3.653,10.705
		c0.831,4.69,2.784,6.727-1.362,4.942c-4.123-1.808-4.882-11.548-5.474-18.539c-0.602-6.968,3.774-13.864,9.331-25.159
		c5.558-11.284,13.852-38.902,19.071-46.677c5.22-7.787-18.203-39.733-24.785-40.383c-6.594-0.665-47.738-21.362-54.477-31.513
		c-6.749-10.149-20.783-13.935-46.134-15.273c-25.364-1.339-35.935,4.714-44.41-10.356c-3.87,5.546-15.442,10.32-15.442,10.32
		s2.724,6.184-4.098,7.884c-18.433-4.219-28.113-18.216-26.702-32.284c-16.745-9.981-22.35-42.542,0.434-71.076
		c22.784-28.521,59.407-17.768,66.689-24.157c6.292-5.51,12.572-35.816,14.537-47.715c0.326-1.88,0.519-3.291,0.602-4.085
		c0,0,5.269-11.224-8.811-19.999c-18.746-8.016-63.988-38.347-74.97-66.484c-11.007-28.147-41.506-68.061-58.334-72.185
		c-16.828-4.135-14.104-19.854-14.104-19.854s-7.98-0.796-27.088-5.173c-19.106-4.363-6.389-16.599-9.8-16.936
		c-3.411-0.338-19.107-4.365-26.219-13.683c-7.126-9.306,7.667-7.836,13.235-6.052c5.593,1.785-1.784-5.099-16.093-11.439
		C6.385,20.449-2.934-1.371,4.781,1.849z"></path>
</g>
</svg>
