<!--?xml version="1.0" encoding="utf-8"?-->
<!-- Generator: Adobe Illustrator 22.1.0, SVG Export Plug-In . SVG Version: 6.00 Build 0)  -->
<svg version="1.1" id="_x33_" xmlns="http://www.w3.org/2000/svg" xmlns:xlink="http://www.w3.org/1999/xlink" x="0px" y="0px" viewBox="0 0 800 688.667" style="enable-background:new 0 0 800 688.667;" xml:space="preserve">
<style type="text/css">
	.st0{fill:#040000;}
</style>
<g>
	<path class="st0" d="M19.88,497.65c9.368-7.382,25.776-49.015,26.59-56.396c0.833-7.342,3.273-44.092,4.92-55.561
		c1.628-11.432,5.715-33.498,5.715-33.498s-4.92-14.685,1.628-63.7c4.523-33.95,23.164-58.097,47.2-76.796
		C24.327,89.408,82.427,43.762,142.076,32.759c62.072-11.432,103.744,18.801,98.029,16.34c-5.715-2.459-16.352,9.009-37.585,9.009
		s-77.61-8.176-91.501,51.474c-7.323,31.415,20.042,64.117,33.631,78.007c42.486-18.433,148.35-7.721,165.704-6.964
		c17.978,0.833,86.617,17.183,108.664,6.548c22.067-10.598,80.883-14.685,93.146-18.772c12.265-4.089,40.841-35.957,45.761-42.505
		c4.881-6.509,47.387-66.993,47.387-66.993c-7.362-9.803,0-27.771,0-27.771c-16.351,6.538-24.525-6.529-23.694-12.246
		c0.795-5.734,8.157-0.831,14.685-2.459c6.548-1.628,21.253-14.705,25.322-14.705c4.087,0,30.241,10.616,36.789,13.891
		c6.529,3.273-0.095,9.557,4.089,8.176c4.881-1.647,54.729,22.852,62.903,30.231c8.156,7.343,12.245,23.695,16.333,28.576
		c4.07,4.92,31.851,15.518,35.937,16.352c4.089,0.833,16.352,2.459,19.605,10.635c3.276,8.138-5.715,17.941-5.715,17.941
		s-5.715,18.811-13.891,19.605c-2.442,9.009-17.146,10.635-23.692,10.635c-6.53,0-17.98-2.459-29.409-1.626
		c-11.432,0.794-33.496,2.459-42.467,6.546c-9.009,4.089-52.307,86.6-58.024,144.585c-5.715,58.022-30.221,84.175-35.124,99.694
		c-4.901,15.519-31.035,144.585-31.035,152.759c0,8.176,6.529,47.386,8.97,53.104c2.46,5.715,19.605,4.92,26.968,4.92
		c7.36,0,12.243,8.174,9.801,11.43c1.647,4.087-9.801,13.057-26.134,10.635c-2.461,7.342-28.615,1.628-35.143,0.796
		c-6.529-0.796-4.901-13.89-5.715-22.066c-0.814-8.176-9.804-35.124-13.077-40.839c-3.256-5.717-4.089-15.519-1.628-22.861
		c2.461-7.382,10.617-92.353,12.263-102.155c1.628-9.803,6.529-48.181,6.529-48.181c-13.077,8.97-19.625,6.548-22.065,10.596
		c-2.442,4.089-16.333,46.593-24.508,67.826c-8.176,21.233-24.507,93.943-25.321,105.411c-0.833,11.429,0.814,49.809,4.901,57.191
		c4.07,7.343,4.07,13.057,8.99,18.772c4.881,5.715-0.833,9.803-2.461,14.723c-1.628,4.882-8.176,5.715-16.35,4.087
		c-5.717,8.137-15.519,0.795-15.519,0.795s-4.883,2.461-14.685-2.46c-9.803-4.883-7.362-39.213-4.92-49.809
		c2.459-10.637-1.628-34.33-2.442-40.044c-0.814-5.717,3.273-16.352,7.362-24.528c4.087-8.137,22.861-113.546,26.135-124.977
		c3.273-11.43-3.274-28.613-3.274-28.613c-13.89-3.256-93.148-33.498-124.996-40.008c-31.851-6.548-81.699,4.883-81.699,4.883
		c-0.814,37.583-51.474,109.496-58.817,117.635c-7.362,8.174-17.98,48.218-17.166,59.65c0.814,11.429,11.451,54.729,17.166,61.277
		c5.715,6.548,9.802,5.715,20.419,5.715c10.616,0,13.077,10.635,12.244,16.352c-0.795,5.715-12.244,0.832-12.244,0.832
		s-12.243,4.883-17.978,3.256c-5.717-1.628-28.595,1.628-35.937-1.628c-7.362-3.293-7.362-41.673-9.009-53.102
		c-1.628-11.468-9.802-35.957-13.872-46.592c-4.087-10.598,2.442-31.037,6.529-38.38c4.089-7.379,17.98-36.788,21.233-44.926
		c3.292-8.176-2.442-44.134-2.442-44.134l-8.988-26.948c-4.903,35.919-73.523,104.578-77.61,109.459
		c-4.087,4.92-26.967,58.024-28.595,66.161c-1.628,8.176-1.628,56.396-0.814,60.483c0.814,4.087,1.628,6.509,10.617,11.429
		c8.988,4.921,22.065,13.06,24.507,15.519c2.442,2.461,4.089,5.715,2.442,11.431c-1.628,5.715-16.313,11.468-22.862,9.007
		c-3.273,7.342-27.781,0-33.496,2.461c-5.715,2.423-7.343-4.089-13.891-7.381c-6.548-3.256-5.715-35.957-2.461-47.387
		c3.275-11.432-4.087-70.248-6.529-80.883C-0.087,527.059,10.531,504.992,19.88,497.65z"></path>
</g>
</svg>
