<!--?xml version="1.0" encoding="utf-8"?-->
<!-- Generator: Adobe Illustrator 22.1.0, SVG Export Plug-In . SVG Version: 6.00 Build 0)  -->
<svg version="1.1" id="_x31__1_" xmlns="http://www.w3.org/2000/svg" xmlns:xlink="http://www.w3.org/1999/xlink" x="0px" y="0px" viewBox="0 0 698.361 800" style="enable-background:new 0 0 698.361 800;" xml:space="preserve">
<style type="text/css">
	.st0{fill:#040000;}
</style>
<g>
	<path class="st0" d="M665.322,593.89c41.59-141.431,29.728-237.71,29.728-237.71h-6.243l-0.551-11.588l5.587-1.475
		c0,0-1.173-49.927-11.864-82.018l-5.62,1.439c0.345-1.146,0.655-2.37,0.862-3.82c2.38-16.64-19.036-95.055-96.287-171.149
		C500.129,7.94,374.148,2,349.214,2C324.247,2,198.23,7.94,117.429,87.571C40.211,163.665,18.795,242.08,21.14,258.719
		c0.208,1.45,0.517,2.674,0.897,3.82l-5.656-1.439C5.69,293.19,4.517,343.118,4.517,343.118l5.587,1.475l-0.517,11.588H3.312
		c0,0-11.864,96.278,29.728,237.71c0,0-4.725,3.569,10.689,57.04c9.692,33.592,19.038,59.438,26.177,66.577
		c7.104,7.123,14.243,8.311,19.001,7.123c8.311,13.087,17.83,22.589,21.383,26.14c3.587,3.57,4.759,4.776,11.898,1.208
		c4.379-2.207,10.105-7.985,13.864-12.106c13.001,29.488,24.037,49.99,27.728,53.698c8.344,8.311,27.347,2.379,27.347,2.379
		s-8.311-8.312,5.967-1.191c14.243,7.123,20.175-8.327,20.175-8.327s9.517,7.139,27.348,0c17.83-7.123,29.692-21.383,24.969-62.99
		c-4.76-41.592-65.388-238.891-77.25-273.362c-11.9-34.469-23.797-60.619-49.939-55.859c-26.14,4.749-27.348,17.829-27.348,17.829
		s-2.345-8.32-11.864-4.75c-9.517,3.56-11.897,13.079-11.897,13.079s-21.382,11.882-23.762,15.433
		c-1.621,2.44-1.035,37.635,6.173,87.814l-7.381,1.343c0,0-23.761-83.199-22.589-168.786h-4.827
		c0.241-2.294,0.517-4.536,0.724-6.381l7.692,0.439c0-27.338,15.45-77.25,15.45-77.25l-2.553-0.656
		c3.519-1.654,6.967-4.121,8.484-7.665c3.553-8.32,72.525-203.23,280.516-203.23c207.957,0,276.897,194.91,280.483,203.23
		c1.516,3.544,4.965,6.011,8.449,7.665l-2.518,0.656c0,0,15.45,49.912,15.45,77.25l7.656-0.439c0.242,1.845,0.484,4.088,0.759,6.381
		h-4.863c1.208,85.587-22.554,168.786-22.554,168.786l-7.347-1.343c7.174-50.179,7.76-85.373,6.14-87.814
		c-2.381-3.551-23.762-15.433-23.762-15.433s-2.38-9.519-11.897-13.079c-9.519-3.57-11.864,4.75-11.864,4.75
		s-1.207-13.079-27.347-17.829c-26.177-4.76-38.039,21.39-49.903,55.859c-11.897,34.471-72.526,231.77-77.286,273.362
		c-4.759,41.608,7.139,55.867,24.97,62.99c17.83,7.139,27.348,0,27.348,0s5.932,15.45,20.175,8.327
		c14.278-7.121,5.967,1.191,5.967,1.191s19.036,5.932,27.347-2.379c3.691-3.708,14.727-24.21,27.728-53.698
		c3.795,4.122,9.484,9.899,13.864,12.106c7.139,3.568,8.345,2.363,11.864-1.208c3.587-3.551,13.07-13.052,21.417-26.14
		c4.758,1.188,11.897,0,19.001-7.123c7.139-7.139,16.452-32.985,26.142-66.577C670.081,597.459,665.322,593.89,665.322,593.89z"></path>
</g>
</svg>
