<!--?xml version="1.0" encoding="utf-8"?-->
<!-- Generator: Adobe Illustrator 15.1.0, SVG Export Plug-In . SVG Version: 6.00 Build 0)  -->

<svg version="1.1" id="_x32_" xmlns="http://www.w3.org/2000/svg" xmlns:xlink="http://www.w3.org/1999/xlink" x="0px" y="0px" width="512px" height="512px" viewBox="0 0 512 512" style="width: 256px; height: 256px; opacity: 1;" xml:space="preserve">
<style type="text/css">

	.st0{fill:#4B4B4B;}

</style>
<g>
	<path class="st0" d="M181.875,333.536l-1.375,0.25c-3.938,1.047-7.516,5-8.016,9.109c-0.391,3.547,1.703,6.078,4.906,5.844
		l1.281-0.25c3.922-1.031,7.531-5.422,8.031-9.484C187.141,335.442,185.063,333.317,181.875,333.536z" style="fill: rgb(75, 75, 75);"></path>
	<path class="st0" d="M319.969,273.411l-1.281,0.234c-3.938,1.109-7.531,5.422-8.031,9.5c-0.438,3.547,1.656,5.703,4.813,5.484
		l1.453-0.25c3.922-1.125,7.453-5.016,7.953-9.078C325.328,275.708,323.203,273.177,319.969,273.411z" style="fill: rgb(75, 75, 75);"></path>
	<path class="st0" d="M507.656,99.536c-3.063-3.688-7.938-5.844-13.125-5.781c-1,0-2,0.063-3,0.203l0.031-0.016
		c-6.484,0.859-29.031,3.563-49.344,3.547c-6.938,0.016-13.594-0.313-19.141-1.078c-8.906-1.219-17.078-2.016-24.641-2.016
		c-11.125,0.016-21.094,1.734-29.469,6.953c-8.406,5.203-14.5,13.813-18.234,25.563c-1.453,4.578-5.141,12.672-10.125,22
		c-7.453,14.031-17.859,31.109-28.297,45.625c-5.219,7.266-10.469,13.875-15.313,19.141c-4.797,5.25-9.313,9.109-12.406,10.766
		c-0.266,0.125-0.406,0.359-0.656,0.531c-8.781,4.219-17.594,8.719-26.406,13.266c-22.313,11.438-44.609,22.828-66.281,29.141
		c-0.766-0.328-1.594-0.672-2.484-1.094c-11.609-5.406-32.406-18.25-51.453-30.844c-9.547-6.313-18.719-12.594-26.219-17.906
		c-7.5-5.281-13.406-9.672-16.156-11.969c-6.313-5.281-13.531-7.984-20.594-7.984c-9.906-0.031-19,5.375-24.688,14.078
		c-6.969,6.609-16.141,14.172-24.656,20.656c-4.328,3.297-8.484,6.328-12.109,8.781c-3.578,2.469-6.672,4.391-8.625,5.406
		l0.016,0.047c-0.813,0.406-1.563,0.922-2.125,1.516c-1.063,1.188-1.531,2.391-1.813,3.438C0.063,252.536,0,253.458,0,254.364
		c0.031,3.078,0.859,6.094,2.25,9.438c2.094,4.984,5.563,10.438,10.672,14.953c5.078,4.484,12.047,7.953,20.359,7.938
		c4.844,0,9.938-1.172,15.25-3.641c0.25,5.578,2.125,10.859,5.5,15.031c3.563,4.469,9.125,7.688,15.531,7.672
		c4.391,0.016,8.922-1.547,13.188-4.422c0.469,1.031,0.969,2.047,1.594,2.984c2.078,3.094,5.031,5.625,8.609,7.516
		c3.109,1.641,6.313,2.453,9.344,2.453c3.672,0,6.891-1.172,9.469-2.609c3.891-2.188,6.766-4.922,9.203-6.75
		c0.156-0.125,0.297-0.203,0.438-0.313c-3.797,31.391-9.219,76.156-12.797,105.859c12.844,6.5,26.25,8.531,40.016,7.531
		c29.281-2.172,60.25-18.109,91.203-34.031c30.984-15.922,61.969-31.891,91.297-34.047c8.375-0.609,16.609-0.109,24.672,1.844
		c5.188,1.266,12.063,4.422,12.422,4.578l0.828,0.094l1.297-0.5c0.688-0.469,1.156-1.219,1.234-2.016
		c0.516-4.141,8.984-74.344,15.016-124.125c1.703,0.109,3.438,0.25,5.063,0.25c12.938,0,23.469-3.25,31.031-8.25
		c3.781-2.5,6.828-5.422,9.016-8.719c2.172-3.281,3.516-6.953,3.516-10.813c0-1.766-0.359-3.516-0.953-5.203
		c8.172-1.656,15.203-5.641,20.547-10.563c3.531-3.281,6.391-7,8.406-10.891c2.016-3.906,3.25-8,3.25-12.156
		c0.031-2.297-0.438-4.641-1.359-6.844c13.016-2.422,23.359-7.484,30.922-13.859c10.578-8.969,15.906-20.188,15.969-30.156
		C512,107.849,510.719,103.192,507.656,99.536z M117.063,293.067c-3.625,2.203-6.344,4.828-8.813,6.594
		c-1.234,0.922-2.344,1.594-3.328,2.016c-0.969,0.422-1.766,0.609-2.625,0.609c-0.953-0.016-2.078-0.219-3.766-1.094
		c-2.063-1.094-3.391-2.344-4.188-3.531c-0.797-1.219-1.156-2.391-1.156-3.766c0-1.359,0.422-3,1.438-4.828
		c0.672-0.969,1.359-1.906,2.031-2.969c1.672-2.688,0.984-6.234-1.594-8.063c-2.563-1.859-6.156-1.375-8.156,1.094
		c-0.156,0.188-0.266,0.391-0.406,0.594l-0.016-0.016c-0.063,0.109-0.125,0.203-0.203,0.313c-0.703,0.922-1.375,1.875-1.938,2.844
		c-2.766,3.844-5.406,6.531-7.75,8.188c-2.922,2.094-5.219,2.688-7.031,2.703c-2.406-0.031-4.438-1.078-6.219-3.219
		c-1.75-2.141-2.938-5.359-2.922-8.641c0.016-3.406,1.141-6.828,3.938-9.797c2.219-2.328,2.188-6-0.063-8.313
		s-5.922-2.422-8.328-0.266c-9.594,8.625-17.094,11.172-22.688,11.172c-3.344-0.016-6.172-0.875-8.781-2.344
		c-3.875-2.172-7.172-5.859-9.375-9.578c-1.094-1.844-1.922-3.688-2.438-5.234c-0.219-0.656-0.375-1.25-0.5-1.766
		c2.219-1.313,4.656-2.828,7.484-4.75c11.453-7.844,27.391-20.313,38.641-31.016l0.969-1.203c3.875-6.172,9.313-9.188,15.063-9.219
		c4,0.016,8.406,1.469,12.906,5.219c3.781,3.125,11.031,8.438,20.281,14.906c13.813,9.656,31.906,21.75,48.078,31.688
		c6.031,3.703,11.797,7.109,16.984,10c-2.094,0.297-4.219,0.672-6.313,0.828c-8.313,0.609-16.5,0.109-24.5-1.813
		c-5.25-1.266-12.234-4.438-12.594-4.609l-0.813-0.094l-1.313,0.484c-0.703,0.484-1.156,1.234-1.25,2.031
		c-0.156,1.375-1.188,9.891-2.719,22.469C120.797,291.161,118.75,292.067,117.063,293.067z M150.688,400.786
		c-1.094,0.078-2.219,0.156-3.313,0.203c0.344-12.594-7.469-22-18.359-26.797c2.516-20.641,5.016-41.297,7.469-61.938
		c0.75,0.047,1.5,0.031,2.25-0.031c10.516-0.781,19.609-10.922,22.094-22.656c1.109-0.047,2.219-0.094,3.328-0.188
		c21.25-1.563,43.375-10.375,65.781-21.172c-17.281,18.656-30.406,43.328-33.344,67.359c-2.906,23.953,5.188,40.938,19.844,44.063
		C194.078,390.427,171.938,399.224,150.688,400.786z M251.281,339.646c-4.313,2.203-8.594,4.406-12.875,6.578
		c0.625-5.156,1.234-10.328,1.906-15.484c-6.938,3.547-13.844,7.031-20.719,10.297l0.172-1.484c0.406-3.25,0.766-6.5,1.172-9.797
		c6.859-3.313,13.781-6.797,20.719-10.344c0.313-2.5,0.594-5.016,0.906-7.516c-0.547-0.719-1.094-1.422-1.625-2.094
		c-6.25,3.156-12.453,6.313-18.734,9.297c0.141-0.766,0.234-1.531,0.328-2.25c0.25-2.297,0.547-4.594,0.813-6.891
		c0.094-0.766,0.188-1.531,0.266-2.234c3.797-1.844,7.609-3.75,11.422-5.641c-2.578-3.359-5.156-6.719-7.719-10.172l1.438-0.672
		c3.172-1.563,6.344-3.125,9.453-4.688l1.5-0.781c3.453,4.594,6.922,9.063,10.391,13.594c5.125-8.953,10.25-17.844,15.375-26.766
		l1.438-0.719c3.109-1.609,6.281-3.172,9.438-4.672l1.453-0.719c-3.75,6.469-7.516,13-11.328,19.531
		c3.813-1.891,7.625-3.781,11.438-5.625c-0.094,0.766-0.188,1.531-0.25,2.313c-0.313,2.234-0.594,4.531-0.844,6.813
		c-0.094,0.766-0.188,1.547-0.25,2.313c-6.234,2.969-12.5,6.063-18.734,9.266c-0.797,1.391-1.578,2.781-2.391,4.156
		c-0.313,2.516-0.641,5.031-0.906,7.578c6.922-3.547,13.828-7.047,20.688-10.359c-0.406,3.266-0.766,6.563-1.156,9.766l-0.188,1.531
		c-6.906,3.313-13.781,6.797-20.703,10.328C252.531,329.317,251.938,334.474,251.281,339.646z M360.875,309.896
		c-0.75-0.047-1.484-0.031-2.219,0.016c-10.5,0.781-19.641,10.984-22.125,22.672c-1.125,0.047-2.234,0.109-3.328,0.188
		c-21.266,1.563-43.391,10.375-65.75,21.219c17.297-18.719,30.422-43.375,33.344-67.359c2.922-24-5.234-40.984-19.875-44.125
		c22.406-10.781,44.547-19.578,65.734-21.141c1.125-0.078,2.219-0.141,3.344-0.188c-0.313,12.563,7.5,21.938,18.391,26.719
		C365.891,268.552,363.391,289.192,360.875,309.896z M488.297,133.567c-8.266,6.953-21.266,12.563-40.266,12.656
		c-3.25,0.016-5.891,2.578-5.984,5.813c-0.094,3.25,2.391,5.969,5.625,6.172c3.359,0.234,4.891,1.141,5.625,1.859
		c0.719,0.734,1.141,1.609,1.172,3.391c0,1.688-0.563,4.094-1.906,6.641c-1.969,3.828-5.531,7.891-10.125,10.875
		c-4.656,3-10.25,4.938-16.531,4.938c-2.375,0-4.875-0.266-7.5-0.891v0.016c-0.063-0.016-0.109-0.047-0.172-0.047
		c-3.219-0.656-6.359,1.375-7.063,4.578s1.297,6.375,4.484,7.141c0.063,0.016,0.125,0.016,0.172,0.031l0,0
		c3.313,0.688,5.234,1.828,6.172,2.766c0.922,1,1.156,1.672,1.203,2.766c0,1-0.391,2.469-1.516,4.188
		c-1.688,2.563-5.047,5.531-10.094,7.781c-5.063,2.25-11.75,3.813-19.938,3.813c-1.141,0-2.406-0.125-3.609-0.188
		c0.25-2.109,0.516-4.188,0.75-6.188c-12.859-6.484-26.25-8.5-40-7.484c-11.375,0.844-23.016,3.781-34.797,7.969
		c9.906-12.438,20.094-27.828,28.625-42.328c4.672-7.922,8.844-15.578,12.203-22.281c3.359-6.75,5.891-12.484,7.328-16.984
		c3.234-9.938,7.594-15.5,13.172-19.047c5.625-3.516,13.172-5.125,23.109-5.125c6.688,0,14.406,0.734,23,1.906
		c6.375,0.875,13.5,1.188,20.781,1.188c21.313,0,44.125-2.766,50.891-3.641h0.016l1.406-0.094c2.281,0.063,3.125,0.625,3.938,1.531
		c0.797,0.906,1.531,2.672,1.531,5.313C500.047,118.114,496.594,126.646,488.297,133.567z" style="fill: rgb(75, 75, 75);"></path>
</g>
</svg>
