<svg xmlns="http://www.w3.org/2000/svg" width="39.8" height="42.44" viewBox="0 0 39.8 42.44"><path d="M12.22,3.76H7.16a19.707,19.707,0,0,1-2.44-.12V5.92A19.131,19.131,0,0,1,7.14,5.8h5.08V8.36H8.56a18.7,18.7,0,0,1-2.42-.12v2.18a18.454,18.454,0,0,1,1.88-.12,13.857,13.857,0,0,0,3.8,4.72A21.569,21.569,0,0,1,4.4,17.38a9.9,9.9,0,0,1,1.1,2.14,21.985,21.985,0,0,0,8.14-3.16,21.711,21.711,0,0,0,8.04,3.24,8.058,8.058,0,0,1,1.08-2.32,20.635,20.635,0,0,1-7.18-2.3A18.657,18.657,0,0,0,19.3,10.9c.4-.58.72-1.04.94-1.3L18.92,8.26a8.7,8.7,0,0,1-1.7.1H14.54V5.8h5.38a18.914,18.914,0,0,1,2.42.12V3.64a19.485,19.485,0,0,1-2.44.12H14.54V2.98a9.7,9.7,0,0,1,.1-1.76H12.1a9.741,9.741,0,0,1,.12,1.76Zm4.76,6.54a11.719,11.719,0,0,1-3.26,3.5,10.666,10.666,0,0,1-3.28-3.5ZM33.24,7.66H29.28V4.42a11.764,11.764,0,0,1,.08-1.6h-2.4a11.14,11.14,0,0,1,.1,1.76V8.54c0,.46-.02.84-.06,1.28.48-.04.9-.06,1.44-.06h4.8v6.56h-4.7V13.08a9.882,9.882,0,0,1,.1-1.72H26.22a16.623,16.623,0,0,1,.1,1.92v4.24a14.511,14.511,0,0,1-.12,2h2.34V18.48h11.9v1.04h2.34a12.629,12.629,0,0,1-.12-2V13.2a15.99,15.99,0,0,1,.1-1.9H40.34a10.643,10.643,0,0,1,.1,1.7v3.32H35.5V9.76h5.16c.48,0,.96.02,1.4.06A10.958,10.958,0,0,1,42,8.54V4.56a11.5,11.5,0,0,1,.1-1.74H39.7a12.014,12.014,0,0,1,.08,1.58V7.66H35.5V3.28a12.872,12.872,0,0,1,.12-1.98h-2.5a12.007,12.007,0,0,1,.12,1.98ZM8.36,33.2a15.058,15.058,0,0,1,1.72-.08h6.84a14.559,14.559,0,0,1,1.8.08V31.8a19.439,19.439,0,0,0,3.26,1.76,10.768,10.768,0,0,1,1.1-2.2,18.806,18.806,0,0,1-5.1-2.74,13.067,13.067,0,0,1-3.36-3.38H12.24A13.967,13.967,0,0,1,9.1,28.58,19.983,19.983,0,0,1,4,31.46,7.745,7.745,0,0,1,5.16,33.5a20.361,20.361,0,0,0,3.2-1.68Zm1.74-2.16H9.54a14,14,0,0,0,3.92-3.9,18.269,18.269,0,0,0,4.12,3.9H10.1ZM9.12,43.52V42.5h8.74v1.02h2.38a12.494,12.494,0,0,1-.12-2.1V36.74a13.632,13.632,0,0,1,.1-1.98,13.12,13.12,0,0,1-1.74.08h-10a12.6,12.6,0,0,1-1.72-.08,18.057,18.057,0,0,1,.1,1.98V41.4a15.992,15.992,0,0,1-.12,2.12Zm0-6.74h8.74v3.76H9.12Zm28.62-5.5H36.48a19.131,19.131,0,0,1-2.42-.12v2.3a22.368,22.368,0,0,1,2.44-.12h1.24v7.3a22.763,22.763,0,0,1-.14,3.02h2.5a23.78,23.78,0,0,1-.14-3.02v-7.3h1.4a22.368,22.368,0,0,1,2.44.12v-2.3a19.131,19.131,0,0,1-2.42.12H39.96V27.66a15.435,15.435,0,0,1,.14-2.4H37.6a13.548,13.548,0,0,1,.14,2.4ZM26.4,27.72a13.974,13.974,0,0,1,1.72-.08h3.46a13.833,13.833,0,0,1,1.7.08V25.76a9.909,9.909,0,0,1-1.7.1H28.12a9.882,9.882,0,0,1-1.72-.1Zm-.84,2.86a11.162,11.162,0,0,1,1.68-.1H32.4a12.084,12.084,0,0,1,1.7.08v-2a9.769,9.769,0,0,1-1.7.1H27.26a9.924,9.924,0,0,1-1.7-.12Zm.86,2.78a8.34,8.34,0,0,1,1.32-.06h4.24a7.933,7.933,0,0,1,1.28.06v-1.9a7.433,7.433,0,0,1-1.28.06H27.74a11.245,11.245,0,0,1-1.32-.06Zm0,2.84a11.1,11.1,0,0,1,1.3-.06h4.22a11.012,11.012,0,0,1,1.32.06V34.3a7.433,7.433,0,0,1-1.28.06H27.74a10.131,10.131,0,0,1-1.32-.06Zm2.1,6.56H31.3v.62h2.14a10.572,10.572,0,0,1-.1-1.74V38.7a10.822,10.822,0,0,1,.08-1.54,10.866,10.866,0,0,1-1.3.06h-4.3a11.4,11.4,0,0,1-1.4-.06,12.49,12.49,0,0,1,.08,1.56v3.02a13.583,13.583,0,0,1-.1,1.92h2.12Zm-.04-3.72h2.84v1.94H28.48Z" transform="translate(-4 -1.22)" fill="#707070"/></svg>