<svg xmlns="http://www.w3.org/2000/svg" width="41.52" height="16.06" viewBox="0 0 41.52 16.06"><path d="M-5,.24A20.989,20.989,0,0,1-6.02-2.12l-4.44-11.54a13.243,13.243,0,0,1-.68-2.02h-3.48a11.846,11.846,0,0,1-.64,2.02l-4.4,11.54A21.861,21.861,0,0,1-20.72.24h3.28a9.975,9.975,0,0,1,.6-2.1l.8-2.18h6.4l.8,2.18A13.448,13.448,0,0,1-8.28.24Zm-5.36-6.58h-4.96l2.08-5.92c.06-.18.06-.18.38-1.12.22.66.28.9.36,1.12ZM7.94-2.32a21.107,21.107,0,0,1-2.84.14H-.5V-12.74a18.237,18.237,0,0,1,.16-2.94H-3.36a19.5,19.5,0,0,1,.16,2.96V-2.34A15.869,15.869,0,0,1-3.36.3C-2.64.26-1.94.24-.82.24H5.1A19.415,19.415,0,0,1,7.94.38Zm12.86,0a21.107,21.107,0,0,1-2.84.14h-5.6V-12.74a18.237,18.237,0,0,1,.16-2.94H9.5a19.5,19.5,0,0,1,.16,2.96V-2.34A15.869,15.869,0,0,1,9.5.3c.72-.04,1.42-.06,2.54-.06h5.92A19.415,19.415,0,0,1,20.8.38Z" transform="translate(20.72 15.68)" fill="#707070"/></svg>