<!--?xml version="1.0" encoding="utf-8"?-->
<!-- Generator: Adobe Illustrator 22.1.0, SVG Export Plug-In . SVG Version: 6.00 Build 0)  -->
<svg version="1.1" id="_x30_" xmlns="http://www.w3.org/2000/svg" xmlns:xlink="http://www.w3.org/1999/xlink" x="0px" y="0px" viewBox="0 0 554.79 800" style="width: 347px;" xml:space="preserve">
<style type="text/css">
	.st0{fill:#040000;}
</style>
<g>
	<path class="st0" d="M541.895,510.538c-4.263-7.891-0.611-27.958,2.423-44.365c3.04-16.407,7.298-51.664,7.904-100.895
		c0.6-49.237-24.311-87.531-57.145-116.094c-32.815-28.572-66.248-17.634-75.363-20.668c-9.115-3.038-19.442-0.609-30.998-2.429
		c-7.298,1.82-24.311,4.864-24.311,4.864l3.652-4.864c-9.727,0.612-29.793,7.292-29.793,7.292l3.047-4.864
		c-9.152,2.282-19.944,2.187-26.753,1.789c1.23-0.137,2.331-0.483,3.046-1.187c-9.733-4.854-29.799-4.854-29.799-4.854l7.311-3.653
		c-13.985-2.429-23.1-1.208-23.1-1.208s2.429-3.655,1.217-6.084c-10.939,7.292-29.793-2.435-29.181-4.857
		c2.423-1.829,11.544-1.217,12.15-1.217c-7.892-9.122-20.654-9.122-27.352-13.985c3.04-1.215,15.202-1.215,15.202-1.215
		c-7.904-7.292-24.311-4.861-35.262-12.152c5.475,3.04,12.774-2.435,12.774-2.435c-8.503,1.823-28.564-13.982-26.734-17.625
		c8.503,0.612,15.79,8.51,16.402,6.687c-3.64-14.594-21.271-17.023-26.74-29.172c3.634-0.612,10.938,3.639,10.938,3.639
		c-6.637-12.165-13.275-12.274-21.742-16.762c3.891,1.514,9.464,1.447,12.823,1.23c-3.194-0.217-8.791-2.062-15.392-10.604
		c-10.333-13.37-25.529-16.408-37.079-13.37c7.892-8.51,4.869-21.88,6.081-29.175c1.205-7.296,0.6-11.55-2.435-10.938
		c-3.04,0.608-10.333,9.727-17.019,13.372c-6.687,3.64-8.503,10.333-10.333,18.231c-3.04-0.609-2.416-12.159-2.416-12.159
		s0,0-0.624,0c-3.647,3.04-6.076,9.115-6.076,9.115l0.606-4.855c1.218-1.22,1.823-7.292-0.606-9.115c0,0-4.869,10.939-6.698,9.718
		c-1.811-1.211,2.441-9.118,1.829-10.329c-4.074,1.018-6.84,3.725-7.635,4.582c3.407-3.671,3.995-9.446,3.995-9.446
		s-1.823,3.041-7.305,6.686c-5.463,3.643-1.816,17.022-8.503,19.448c2.435-10.941-8.51-32.209-8.51-32.209s0,0-7.892,12.15
		c-7.904,12.162,0.599,28.575,0,31.61c-0.612,3.04-13.985,19.451-24.311,34.647c-10.938,6.683-13.985,20.05-7.299,23.097
		c6.681,3.041-3.034,38.9-12.155,55.31c-9.115,16.417-13.978,17.625-15.196,24.311c-1.224,6.684,5.47,17.631,4.252,23.709
		c-1.224,6.075,0.6,10.329,3.041,12.765c2.435,2.426,0,7.897,3.04,11.546c3.028,3.647,11.551,5.473,18.23,6.684
		c6.687,1.218,12.156,0.609,17.631-5.463c5.469-6.087,7.292-12.767,7.292-15.805c0-3.04,0-6.69,5.475-9.116
		c5.469-2.434,38.29-7.907,42.543-6.689c4.252,1.217,13.985,49.846,26.128,102.721c-21.253,72.944-7.292,102.113,10.344,125.813
		c-7.304,7.904-24.929,52.281-27.352,69.9c-2.441,17.631-14.597,35.25-23.101,45.589c-8.503,10.326-9.727,27.969-9.727,27.969
		s0.605,4.258,3.028,15.184c2.441,10.938,16.426,18.855,23.1,23.1c6.699,4.258,26.746,41.955,38.297,43.766
		c11.549,1.823,17.63-9.728,24.311-9.728c6.693,0,13.985-1.21,26.758-9.115c9.116-3.646,24.306-18.843,15.178-24.311
		c-9.115-5.47-24.299-6.681-29.774-6.081c-5.469,0.611-13.979,0-17.625,3.034c-3.652,3.047-5.475,7.904-12.767,7.904
		c-7.299,0-24.306-15.808-29.175-25.522c-4.858-9.728-2.435-32.216,6.081-38.896c8.516-6.693,42.542-45.589,46.194-48.023
		c3.646-2.435,24.311-14.585,34.65-33.439c4.245,16.42,65.642,35.873,73.54,44.989c7.898,9.115,12.767,74.146,17.02,84.497
		c4.245,10.314-1.824,20.053-1.824,36.461c0,16.42,5.463,12.15,5.463,19.442c0,7.292-6.074,22.489-10.333,29.181
		c-4.245,6.693-1.212,8.516-0.605,17.019c0.605,8.503-4.845,9.728-4.845,21.277c0,11.551,9.709,15.796,22.483,8.503
		c12.761-7.292,21.264-24.923,21.264-24.923s-4.864-4.857-2.423-11.549c2.423-6.681,0-8.504-4.258-12.761
		c-4.258-4.258-1.217-4.857,0.612-10.939c1.811-6.08,13.96,5.469,22.476,10.327c8.522,4.869,9.739,16.42,18.243,16.42
		c8.509,0,13.979-1.212,20.053-9.116c6.081-7.904,25.529-16.407,30.998-22.501c5.476-6.068,15.196-23.087,15.196-27.945
		c0-4.87-36.467,0-42.548,3.034c-6.062,3.034-6.062,3.034-9.115,5.482c-3.041,2.422-6.075,5.469-10.327,10.313
		c-4.258,4.87-21.877-3.034-25.541-8.503c-3.64-5.469,2.447-16.407,6.087-24.911c3.646-8.528,41.948-62.008,44.977-68.089
		c3.034-6.081,2.435-22.489-6.081-27.346c-8.516-4.87-20.048-51.67-24.911-57.139c-4.864-5.47-3.046-32.827,0-35.861
		c3.029-3.034,9.109-3.647,15.796-12.774c42.548-22.476,58.356-45.577,65.654-50.446c7.28-4.858,4.851,24.324,10.932,32.827
		c6.075,8.503,17.638,9.727,24.318,9.727c6.687,0,13.368,24.324,22.482,42.542c9.115,18.23,4.857,23.1,3.053,30.392
		c-1.836,7.293,2.416,32.828,3.639,40.12c1.205,7.293-9.733,36.474-12.162,44.977c-2.423,8.516-4.857,6.681-9.721,17.032
		c-4.857,10.314-3.646,16.407,0.606,25.51c4.258,9.115,5.47,15.809,3.047,21.277c-2.447,5.47,3.022,17.631,4.24,25.535
		c1.236,7.904,6.081,10.339,6.081,10.339s3.046,9.103,7.91,14.572c4.864,5.47,30.998,3.047,31.61-20.041
		c0.606-23.1-12.162-23.711-12.767-25.535c-0.606-1.823,0-6.681-8.521-9.727c-8.498-3.035-5.457-10.339-2.423-17.019
		c3.041-6.692,3.041-12.761,1.829-26.734c-1.217-13.985,9.115-44.39,15.19-52.281c6.081-7.904,5.469-11.55,7.299-18.842
		c1.816-7.292,8.51-24.311,11.538-37.696C555.868,528.781,546.148,518.454,541.895,510.538z M348.597,625.428
		c3.652,13.373-13.374,23.1-15.796,32.827c-3.652-19.454,2.422-82.674,2.422-82.674s10.938,26.747,13.374,32.815
		C351.031,614.489,344.963,612.055,348.597,625.428z M189.355,125.186c0,0-1.144,0.153-2.845,0.268
		C188.303,125.58,189.355,125.186,189.355,125.186z"></path>
	<path class="st0" d="M447.072,340.358c-0.611-6.686-10.339-10.938-9.727-13.373c0.599-2.431-1.217-4.86-4.258-6.084
		c-3.041-1.212-9.115-13.979-12.774-17.014c-3.646-3.043-33.427-57.132-34.632-60.179c-3.64-5.472-19.46-24.306-29.781-29.781
		c2.429-3.646,2.429-20.668,2.429-20.668c13.367-6.076,44.977-41.334,48.012-45.583c3.047-4.255,0-3.646,0-18.24
		c3.646-30.995-26.752-46.797-26.128-54.698c0.605-7.897-29.181-23.103-29.793-26.134c-0.606-3.044-1.211-4.861-15.796-6.084
		c-14.597-1.215-58.961,5.472-58.961,5.472s2.428-51.054-44.977-45.583c-47.411,5.463-38.297,63.82-38.297,63.82
		s-3.646,1.82-1.823,4.252c1.823,2.435,9.115,1.212,9.115,1.212s1.829,2.435,0,4.864c-26.147,24.324-18.836,72.338-18.23,77.804
		c0.605,5.472,7.904,38.9,9.115,44.371c1.212,5.466,1.823,18.234,4.264,21.268c2.423,3.044,6.681-0.597,8.503,1.221
		c1.823,1.823,4.258-4.255,8.503-3.64c4.258,0.602,0,0,3.041-4.261c3.653,0,1.823-6.075,1.823-6.075
		c-0.606-10.941-7.287-13.373-7.287-13.373l-3.046-29.178c2.423-2.425-1.212-6.081,0-8.509c1.223-2.435,9.115-17.625,12.767-19.448
		c3.64-1.826,4.252-3.04,9.715,0.612c5.475,3.639,23.106,3.031,26.746,6.075c3.652,3.041,23.094,2.432,23.094,2.432
		s-39.495,32.215-41.325,37.681c-1.817,5.473-14.591,21.883-13.979,34.045c0.606,12.152,55.915,89.951,58.35,92.994
		c2.428,3.031,4.27,7.296-1.217,12.765c-5.469,5.472-22.488,14.587-21.271,18.231c1.217,3.652,4.258,1.823,18.842,1.823
		c14.584,0,30.399-8.507,32.815-12.156c2.435-3.649-2.416-17.631-4.246-19.448c-1.823-1.826-7.904-12.765-9.115-26.138
		c-1.218-13.373-23.1-44.983-24.929-47.415c-1.818-2.423-6.075-13.367,3.047-11.538c9.115,1.817,51.058,4.252,51.058,4.252
		l9.721,10.939c0,0,0.605,3.643,0.605,6.078c0,2.428,18.855,26.135,26.147,32.824c7.28,6.686,38.285,41.334,38.285,44.365
		c0,3.043,2.44,3.043,4.863,6.686c2.435,3.65-8.51,12.768-17.014,18.241c-8.51,5.469-10.944,10.329-7.285,12.764
		c3.64,2.431,22.476,1.82,29.774-0.612c7.287-2.432,24.917-9.727,30.381-11.55C447.672,348.865,447.672,347.042,447.072,340.358z
		 M283.56,201.773l16.407-7.29c0,0,0.013,8.957,1.976,9.687c0.159,0.012,0.294,0.022,0.453,0.028
		c-0.159,0.046-0.306,0.03-0.453-0.028C291.819,203.537,283.56,201.773,283.56,201.773z"></path>
</g>
</svg>
