<!--?xml version="1.0" encoding="utf-8"?-->
<!-- Generator: Adobe Illustrator 22.1.0, SVG Export Plug-In . SVG Version: 6.00 Build 0)  -->
<svg version="1.1" id="_x31__1_" xmlns="http://www.w3.org/2000/svg" xmlns:xlink="http://www.w3.org/1999/xlink" x="0px" y="0px" viewBox="0 0 800 543.196" style="enable-background:new 0 0 800 543.196;" xml:space="preserve">
<style type="text/css">
	.st0{fill:#040000;}
</style>
<g>
	<path class="st0" d="M798,334.242c0,11.548-8.857,20.89-19.761,20.89H335.5c-10.902,0-19.743-9.342-19.743-20.89V22.26
		c0-11.551,8.841-20.902,19.743-20.902h442.738C789.143,1.358,798,10.709,798,22.26V334.242z"></path>
	<path class="st0" d="M217.239,483.169c0,32.389-24.835,58.669-55.449,58.669c-30.637,0-55.478-26.28-55.478-58.669
		c0-32.408,24.841-58.669,55.478-58.669C192.404,424.5,217.239,450.76,217.239,483.169z"></path>
	<path class="st0" d="M781.537,379.713H308.97c-9.098,0-16.463-7.799-16.463-17.429v-260.13c0-9.621-7.367-17.419-16.475-17.419
		H125.921c-4.889,0-9.516,2.313-12.648,6.274L5.818,227.384C3.35,230.518,2,234.469,2,238.538v119.63v62.544
		c0,9.63,7.374,17.419,16.475,17.419h82.795c13.429-20.1,35.533-33.286,60.52-33.286c24.977,0,47.081,13.186,60.491,33.286h338.003
		c13.427-20.1,35.512-33.286,60.489-33.286c25.006,0,47.09,13.186,60.52,33.286h100.245c9.089,0,16.463-7.789,16.463-17.419v-23.57
		C798,387.512,790.626,379.713,781.537,379.713z M231.949,252.39c0,9.9-7.596,17.942-16.995,17.942H79.148
		c-9.371,0-16.986-8.042-16.986-17.942v-12.068c0-4.116,1.341-8.106,3.809-11.317l68.595-89.353
		c3.232-4.202,8.07-6.642,13.188-6.642h67.2c9.399,0,16.995,8.04,16.995,17.97V252.39z"></path>
	<path class="st0" d="M676.25,483.169c0,32.389-24.822,58.669-55.478,58.669c-30.615,0-55.449-26.28-55.449-58.669
		c0-32.408,24.834-58.669,55.449-58.669C651.428,424.5,676.25,450.76,676.25,483.169z"></path>
</g>
</svg>
