<!--?xml version="1.0" encoding="utf-8"?-->
<!-- Generator: Adobe Illustrator 22.1.0, SVG Export Plug-In . SVG Version: 6.00 Build 0)  -->
<svg version="1.1" id="_x30_" xmlns="http://www.w3.org/2000/svg" xmlns:xlink="http://www.w3.org/1999/xlink" x="0px" y="0px" viewBox="0 0 800 551.076" style="enable-background:new 0 0 800 551.076;" xml:space="preserve">
<style type="text/css">
	.st0{fill:#040000;}
</style>
<g>
	<path class="st0" d="M792.702,301.521C767.885,158.458,712.871,71.48,690.512,54.808C638.756,16.215,556.205,1.378,400,1.378
		c-156.205,0-238.755,14.837-290.512,53.43C87.13,71.48,32.115,158.458,7.298,301.521
		c-24.818,143.067,42.335,248.177,102.19,248.177c84.671,0,75.913-185.402,118.248-185.402c42.337,0,172.264,0,172.264,0
		s129.927,0,172.264,0c42.336,0,33.577,185.402,118.248,185.402C750.367,549.698,817.52,444.588,792.702,301.521z M233.029,199.097
		h-44.566v44.565h-39.508v-44.565h-44.565v-39.511h44.565v-44.565h39.508v44.565h44.566V199.097z M307.29,316.592
		c-20.139,0-36.466-16.325-36.466-36.465c0-20.141,16.327-36.465,36.466-36.465c20.139,0,36.466,16.325,36.466,36.465
		C343.756,300.267,327.429,316.592,307.29,316.592z M480.967,316.592c-20.139,0-36.466-16.325-36.466-36.465
		c0-20.141,16.327-36.465,36.466-36.465c20.14,0,36.467,16.325,36.467,36.465C517.434,300.267,501.107,316.592,480.967,316.592z
		 M576.928,201.124c-12.03,0-21.782-9.752-21.782-21.781c0-12.032,9.752-21.785,21.782-21.785c12.03,0,21.781,9.752,21.781,21.785
		C598.71,191.372,588.958,201.124,576.928,201.124z M624.185,248.38c-12.03,0-21.783-9.752-21.783-21.781
		c0-12.033,9.752-21.785,21.783-21.785c12.03,0,21.781,9.752,21.781,21.785C645.966,238.628,636.214,248.38,624.185,248.38z
		 M624.185,153.869c-12.03,0-21.783-9.752-21.783-21.785c0-12.029,9.752-21.781,21.783-21.781c12.03,0,21.781,9.752,21.781,21.781
		C645.966,144.117,636.214,153.869,624.185,153.869z M671.441,201.124c-12.03,0-21.782-9.752-21.782-21.781
		c0-12.032,9.752-21.785,21.782-21.785c12.03,0,21.782,9.752,21.782,21.785C693.223,191.372,683.471,201.124,671.441,201.124z"></path>
</g>
</svg>
