<!--?xml version="1.0" encoding="utf-8"?-->
<!-- Generator: Adobe Illustrator 15.1.0, SVG Export Plug-In . SVG Version: 6.00 Build 0)  -->

<svg version="1.1" id="_x32_" xmlns="http://www.w3.org/2000/svg" xmlns:xlink="http://www.w3.org/1999/xlink" x="0px" y="0px" width="512px" height="512px" viewBox="0 0 512 512" style="width: 256px; height: 256px; opacity: 1;" xml:space="preserve">
<style type="text/css">

	.st0{fill:#4B4B4B;}

</style>
<g>
	<polygon class="st0" points="291.719,217.594 313.234,184.078 309.953,184.078 288.5,184.078 285.203,184.078 255.984,229.531 
		226.781,184.078 223.5,184.078 202.031,184.078 198.766,184.078 220.281,217.594 194.391,217.594 194.391,222.703 194.391,238.188 
		194.391,243.313 236.844,243.313 241.391,250.406 241.391,267.391 194.391,267.391 194.391,267.438 194.391,289.469 
		194.391,292.906 241.391,292.906 241.391,327.938 270.594,327.938 270.594,292.906 317.609,292.906 317.609,289.469 
		317.609,267.438 317.609,267.391 270.594,267.391 270.594,250.375 275.172,243.313 317.609,243.313 317.609,238.188 
		317.609,222.703 317.609,217.594 	" style="fill: rgb(75, 75, 75);"></polygon>
	<path class="st0" d="M256,0C114.625,0,0,114.609,0,256c0,141.375,114.625,256,256,256c141.391,0,256-114.625,256-256
		C512,114.609,397.391,0,256,0z M485.609,256c0,31.422-6.359,61.391-17.844,88.688l-44.016-18.234
		c9.141-21.688,14.203-45.484,14.203-70.453c0-0.328-0.031-0.656-0.031-0.984L485.578,255
		C485.578,255.344,485.609,255.672,485.609,256z M256,421.938C164.5,421.938,90.063,347.5,90.063,256S164.5,90.063,256,90.063
		S421.953,164.5,421.953,256S347.5,421.938,256,421.938z M26.406,256c0-31.438,6.359-61.391,17.844-88.703l44.016,18.234
		c-9.141,21.688-14.203,45.5-14.203,70.469c0,0.328,0.016,0.641,0.016,0.969H26.422C26.422,256.656,26.406,256.328,26.406,256z
		 M468.344,168.766L424.313,187c-9.344-22.703-23.125-43.109-40.297-60.125l33.688-33.688
		C439.266,114.594,456.578,140.25,468.344,168.766z M344.688,44.234L326.453,88.25C304.766,79.125,280.969,74.063,256,74.063
		c-0.328,0-0.641,0.016-0.969,0.016V26.422c0.328,0,0.641-0.016,0.969-0.016C287.422,26.406,317.391,32.75,344.688,44.234z
		 M168.766,43.656L187,87.688c-22.688,9.344-43.109,23.125-60.125,40.281L93.188,94.281
		C114.594,72.734,140.25,55.422,168.766,43.656z M43.656,343.219L87.688,325c9.344,22.688,23.125,43.094,40.281,60.125
		l-33.688,33.688C72.734,397.406,55.422,371.75,43.656,343.219z M167.297,467.75l18.25-44.016
		c21.672,9.141,45.484,14.203,70.453,14.203c0.328,0,0.656-0.016,0.984-0.016v47.656c-0.328,0-0.656,0.016-0.984,0.016
		C224.578,485.594,194.609,479.25,167.297,467.75z M343.234,468.344L325,424.313c22.703-9.344,43.109-23.125,60.141-40.281
		l33.688,33.688C397.406,439.266,371.75,456.578,343.234,468.344z" style="fill: rgb(75, 75, 75);"></path>
	<path class="st0" d="M137.469,293.875c-1.094-3.406-4.234-5.563-7.625-5.563c-0.797,0-1.625,0.125-2.438,0.375
		c-4.203,1.359-6.516,5.844-5.188,10.063c0.656,2.016,1.344,4.016,2.078,6l0.016,0.031l0.094,0.25v0.016l0.016,0.047l0,0
		l0.016,0.047l0.016,0.016l0.063,0.188l0.016,0.047l0.016,0.016l0.016,0.031v0.016l0.016,0.031v0.016l0.016,0.047l0.047,0.141
		l0.016,0.016l0.016,0.016v0.031l0.016,0.031l0.016,0.031v0.031l0.016,0.016l0.016,0.031v0.016l0.016,0.063l0.016,0.031l0.016,0.031
		l0.016,0.016v0.031l0.016,0.016l0.016,0.031v0.031l0.016,0.031l0.016,0.031v0.031l0.016,0.031l0.016,0.031l0.016,0.031l0.016,0.031
		v0.031l0.016,0.031l0.016,0.016v0.031l0.016,0.031v0.016l0.016,0.031l0.016,0.031l0.047,0.109v0.016l0.016,0.031v0.031l0.016,0.031
		l0.016,0.016l0.016,0.047l0,0l0.016,0.063h0.016l0.031,0.125h0.016l0.016,0.047v0.016l0.016,0.031v0.016l0.031,0.047v0.016
		l0.109,0.281v0.016c2.797,7.063,6.156,13.859,10.031,20.313c1.484,2.516,4.141,3.906,6.859,3.906c1.406,0,2.813-0.375,4.109-1.141
		c3.781-2.266,5.031-7.172,2.75-10.969C144.266,311.516,140.344,302.844,137.469,293.875z" style="fill: rgb(75, 75, 75);"></path>
	<path class="st0" d="M183.078,155.25c3.578-2.594,4.375-7.609,1.781-11.188c-1.578-2.156-4.016-3.297-6.484-3.297
		c-1.625,0-3.281,0.5-4.688,1.531l-0.031,0.016l-0.016,0.016l-0.031,0.016l-0.016,0.016l-0.016,0.016l-0.031,0.016l-0.047,0.031
		l-0.016,0.016l-0.031,0.031h-0.016l-0.031,0.031h-0.016l-0.031,0.031h-0.016l-0.031,0.031h-0.016l-0.109,0.094l-0.031,0.031h-0.016
		l-0.031,0.031h-0.016l-0.031,0.031h-0.016c-8.406,6.188-16.109,13.281-22.938,21.125c-2.891,3.328-2.531,8.375,0.781,11.266
		c1.516,1.328,3.391,1.969,5.25,1.969c2.234,0,4.453-0.922,6.047-2.734C168.406,167.234,175.438,160.797,183.078,155.25z" style="fill: rgb(75, 75, 75);"></path>
	<path class="st0" d="M206.797,370.281c-8.641-3.734-16.906-8.484-24.516-14.109c-1.438-1.047-3.094-1.563-4.75-1.563
		c-2.453,0-4.875,1.125-6.438,3.25c-2.625,3.547-1.875,8.563,1.688,11.188c5.234,3.859,10.75,7.375,16.5,10.5l0.063,0.016v0.016
		l0.047,0.016l0.172,0.094l0,0l0.047,0.031h0.016l0.047,0.031l0,0l0.156,0.094h0.016l0.047,0.031l0,0l0.047,0.031h0.016l0.047,0.031
		l0,0l0.109,0.047V380l0.047,0.016l0.016,0.016l0.047,0.016h0.016l0.031,0.016l0.016,0.016l0.047,0.016v0.016l0.109,0.047
		l0.016,0.016l0.031,0.016l0.031,0.016l0.031,0.016h0.016l0.047,0.031l0,0l0.109,0.063l0.047,0.031h0.016l0.047,0.031h0.016
		l0.031,0.016l0.016,0.016l0.031,0.016l0.031,0.016l0.094,0.047l0.016,0.016l0.047,0.016l0.016,0.016h0.031l0.016,0.016l0.031,0.016
		l0.016,0.016l0.047,0.016h0.016l0.047,0.031l0.016,0.016l0.031,0.016l0.031,0.016l0.031,0.016h0.016l0.031,0.031h0.016l0.047,0.031
		h0.016l0.031,0.016l0.016,0.016l0.047,0.031h0.016l0.047,0.016l0.016,0.016l0.031,0.016l0.016,0.016h0.031l0.031,0.016l0.031,0.016
		l0.016,0.016l0.047,0.016l0.016,0.016l0.031,0.016l0.031,0.016l0.031,0.016l0.016,0.016l0.031,0.016h0.016l0.047,0.031h0.016
		l0.031,0.016l0.016,0.016l0.047,0.016l0.031,0.016l0.031,0.016l0.016,0.016l0.031,0.016l0.031,0.016h0.016l0.031,0.031h0.031
		l0.016,0.016l0.031,0.016l0.063,0.031h0.016l0.031,0.031h0.016l0.031,0.016l0.016,0.016l0.031,0.016h0.016l0.031,0.016l0.031,0.016
		l0.047,0.016l0.031,0.031h0.031l0.016,0.016l0.031,0.016l0.016,0.016l0.031,0.016h0.031l0.031,0.031h0.016l0.031,0.016l0.016,0.016
		l0.109,0.047l0.016,0.016l0.031,0.016l0.031,0.016h0.031l0.016,0.016l0.031,0.016l0.016,0.016l0.031,0.016h0.031l0.047,0.031
		l0.031,0.016l0.016,0.016h0.031l0.031,0.031h0.016l0.031,0.016l0.016,0.016l0.031,0.016l0.031,0.016l0.078,0.031l0.031,0.016
		l0.016,0.016h0.031l0.016,0.016l0.031,0.016l0.031,0.016l0.016,0.016h0.031l0.125,0.063l0,0l0.031,0.031h0.031l0.016,0.016
		l0.031,0.016l0.031,0.016l0.016,0.016h0.031l0.031,0.016l0.016,0.016l0.047,0.031h0.031l0.031,0.016l0.031,0.016l0.016,0.016
		l0.031,0.016h0.016l0.031,0.031h0.031l0.031,0.016l0.016,0.016l0.047,0.031h0.031l0.031,0.016l0.016,0.016h0.031l0.031,0.016
		l0.016,0.016l0.031,0.016l0.031,0.016H195l0.031,0.031h0.031l0.031,0.031h0.047l0.016,0.016l0.031,0.016l0.016,0.016l0.031,0.016
		h0.031l0.031,0.031h0.016l0.031,0.016l0.031,0.016l0.031,0.016l0.031,0.016l0.031,0.016l0.031,0.016h0.031l0.016,0.031h0.031
		l0.031,0.016l0.016,0.016h0.031l0.031,0.031l0.031,0.016l0.031,0.016h0.031l0.031,0.016l0.031,0.016l0.016,0.016l0.031,0.016h0.016
		l0.031,0.016l0.031,0.016l0.031,0.016l0.047,0.016l0.016,0.016l0.031,0.016l0.031,0.016l0.016,0.016h0.031l0.031,0.016l0.016,0.016
		l0.031,0.016l0.031,0.016h0.031l0.016,0.016l0.047,0.016l0.031,0.016l0.031,0.016l0.016,0.016l0.031,0.016h0.031l0.031,0.031h0.016
		l0.031,0.016l0.031,0.016l0.031,0.016l0.031,0.016l0.031,0.016l0.031,0.016h0.016l0.031,0.016l0.031,0.016l0.031,0.016l0.016,0.016
		h0.031l0.031,0.016l0.016,0.016l0.047,0.031h0.031l0.031,0.016l0.016,0.016h0.031l0.031,0.016l0.031,0.016l0.016,0.016l0.031,0.016
		h0.031l0.094,0.063h0.016l0.047,0.016l0.016,0.016l0.031,0.016h0.016l0.047,0.016l0.016,0.016l0.047,0.016l0,0l0.063,0.031l0,0
		l0.047,0.031h0.016l0.047,0.016l0.016,0.016l0.031,0.016h0.016l0.047,0.016l0.016,0.016l0.047,0.016l0,0l0.109,0.063h0.016
		l0.047,0.016v0.016l0.047,0.016h0.016l0.219,0.109h0.016l0.047,0.016v0.016l0.047,0.016h0.016l0.109,0.047l0,0l0.063,0.031
		l0.047,0.031h0.016l0.047,0.016v0.016l0.063,0.016l0.219,0.109h0.016l1.375,0.594c1.031,0.453,2.109,0.656,3.172,0.656
		c3.094,0,6.047-1.797,7.344-4.813C212.719,376.75,210.859,372.031,206.797,370.281z" style="fill: rgb(75, 75, 75);"></path>
	<path class="st0" d="M387.797,260.875c-4.063,0-7.547,3.094-7.953,7.234c-0.906,9.422-2.906,18.719-5.922,27.641
		c-1.406,4.188,0.828,8.719,5.016,10.141c0.859,0.297,1.719,0.422,2.563,0.422c3.344,0,6.453-2.094,7.578-5.438l0.016-0.031l0,0
		l0.016-0.047v-0.016l0.016-0.031l0.016-0.031v-0.031l0.016-0.016v-0.031l0.016-0.016l0.016-0.063l0.016-0.031V300.5l0.016-0.031
		l0.016-0.031v-0.016l0.016-0.031v-0.016l0.016-0.031v-0.031l0.016-0.031v-0.016l0.047-0.125v-0.016l0.016-0.031l0.016-0.031v-0.031
		l0.016-0.016v-0.031l0.016-0.016l0.016-0.031v-0.031l0.016-0.031v-0.016l0.047-0.125v-0.016l0.016-0.031v-0.031l0.016-0.031v-0.016
		l0.016-0.031l0.016-0.031v-0.016l0.016-0.031v-0.031l0.016-0.031v-0.031l0.031-0.047v-0.016l0.016-0.031v-0.031l0.016-0.031v-0.031
		l0.016-0.031l0.016-0.016v-0.031l0.016-0.031v-0.016l0.016-0.031v-0.031l0.016-0.031l0.016-0.063l0,0l0.016-0.047l0.016-0.016
		v-0.031l0.016-0.031v-0.031l0.016-0.031l0.016-0.031v-0.016l0.016-0.031v-0.016l0.016-0.047v-0.016l0.031-0.063l0,0l0.016-0.047
		v-0.016l0.016-0.047v-0.016l0.016-0.031v-0.031l0.016-0.031v-0.016l0.016-0.047l0.016-0.016l0.016-0.047l0.031-0.125l0,0
		l0.016-0.063l0,0l0.016-0.047l0.016-0.016v-0.047l0.016-0.016l0.016-0.047l0.047-0.172v-0.016l0.016-0.047h0.016l0.016-0.063l0,0
		l0.016-0.047v-0.016l0.016-0.063l0.047-0.156l0.016-0.016l0.016-0.047v-0.016l0.016-0.047v-0.016l0.016-0.047l0,0l0.016-0.063l0,0
		l0.063-0.172v-0.016l0.016-0.047v-0.016l0.016-0.031v-0.016l0.016-0.047v-0.016l0.078-0.234l0,0l0.016-0.063l0,0l0.016-0.047
		v-0.016l0.109-0.344l0.031-0.125l0.094-0.281l0.016-0.063l0.078-0.313l0.016-0.047v-0.016l0.016-0.047
		c2.375-8.188,4.031-16.672,4.875-25.391c0.422-4.406-2.797-8.313-7.203-8.734L387.797,260.875z" style="fill: rgb(75, 75, 75);"></path>
	<path class="st0" d="M124.109,252.156c4.094,0,7.594-3.125,7.953-7.281c0.844-9.422,2.766-18.734,5.703-27.688
		c1.391-4.188-0.891-8.719-5.094-10.094c-0.828-0.281-1.672-0.406-2.5-0.406c-3.359,0-6.469,2.125-7.594,5.469
		c-0.906,2.781-1.734,5.578-2.484,8.422v0.047h-0.016v0.063l-0.016,0.047v0.016L120,220.938v0.016v0.031L119.984,221v0.031
		l-0.016,0.031v0.031l-0.016,0.031v0.031l-0.016,0.016v0.047l0,0l-0.016,0.063l-0.016,0.031v0.031l-0.016,0.031v0.031l-0.016,0.031
		v0.016l-0.016,0.031v0.031l-0.016,0.031v0.016l-0.016,0.047v0.016v0.031l-0.016,0.031l-0.016,0.047v0.016l-0.016,0.047v0.016
		l-0.016,0.031v0.031v0.031l-0.016,0.031v0.031l-0.016,0.016v0.047l-0.016,0.016l-0.031,0.172l0,0l-0.016,0.063l0,0l-0.016,0.063
		l-0.016,0.063c-1.031,4.156-1.875,8.391-2.516,12.688l0,0v0.063h-0.016v0.063l0,0l-0.016,0.063l0,0l-0.016,0.125l0,0v0.063
		l-0.016,0.016v0.047v0.016l-0.016,0.047v0.016v0.047v0.016l-0.016,0.031v0.016v0.047v0.016l-0.016,0.063v0.031v0.031L117,235.938
		v0.031v0.016l-0.016,0.031v0.031v0.031v0.031l-0.016,0.016v0.047v0.016l-0.016,0.141v0.016l-0.016,0.031v0.016v0.047l0,0
		l-0.016,0.063l0,0v0.047v0.016l-0.047,0.266c-0.297,2.203-0.547,4.422-0.75,6.656c-0.375,4.391,2.875,8.266,7.266,8.641
		L124.109,252.156z" style="fill: rgb(75, 75, 75);"></path>
	<path class="st0" d="M382.484,224.688c0.781,0,1.578-0.109,2.375-0.359c4.219-1.313,6.578-5.797,5.25-10.016
		c-3.203-10.281-7.563-20.063-12.922-29.203c-1.484-2.531-4.156-3.953-6.906-3.953c-1.375,0-2.766,0.359-4.031,1.109
		c-3.813,2.234-5.094,7.141-2.859,10.953c4.797,8.156,8.641,16.844,11.453,25.844C375.906,222.5,379.063,224.688,382.484,224.688z" style="fill: rgb(75, 75, 75);"></path>
	<path class="st0" d="M355.172,335.688c-2.219,0-4.422,0.906-6,2.688c-6.266,7.094-13.344,13.469-21.047,18.969
		c-3.594,2.563-4.422,7.563-1.859,11.156c1.563,2.188,4.016,3.344,6.516,3.344c1.609,0,3.219-0.469,4.625-1.469
		c6.703-4.781,12.984-10.156,18.734-16.016l0.016-0.016l0.219-0.219l0,0l0.031-0.031l0,0l0.031-0.031l0.016-0.016l0.094-0.109l0,0
		l0.031-0.031h0.016l0.031-0.031v-0.016l0.031-0.031l0.016-0.016l0.094-0.094h0.016l0.016-0.031l0.016-0.016l0.031-0.016
		l0.016-0.031l0.016-0.016l0.016-0.016l0.031-0.031l0,0l0.063-0.063l0.016-0.016l0.016-0.016l0.016-0.031l0.031-0.016l0.016-0.016
		l0.016-0.031l0.016-0.016l0.031-0.016l0.016-0.031l0.016-0.016l0.031-0.031l0.031-0.016l0.016-0.031l0.016-0.016l0.031-0.031
		l0.016-0.016l0.031-0.031l0,0l0.031-0.031l0.016-0.016l0.031-0.047h0.016l0.031-0.047h0.016l0.031-0.047h0.016l0.031-0.031v-0.016
		l0.031-0.047h0.016l0.125-0.125l0.031-0.047l0.016-0.016l0.031-0.031c1.141-1.188,2.25-2.406,3.344-3.641
		c2.922-3.297,2.625-8.359-0.688-11.297C358.938,336.344,357.047,335.688,355.172,335.688z" style="fill: rgb(75, 75, 75);"></path>
	<path class="st0" d="M284.906,377.25l-1.75,0.203c-8.859,1.969-18,2.984-27.156,2.984l-0.984-0.016h-0.031
		c-4.406,0-8,3.563-8.031,7.969c-0.031,4.391,3.484,7.984,7.875,8.031h0.047h0.016l0.281,0.016l0,0h0.047h0.031h0.031h0.266h0.219
		h0.016h0.031h0.031h0.031h0.047h0.016H256h0.063h0.031h0.031h0.016h0.047h0.016h0.031h0.031h0.031h0.031h0.031h0.031h0.031h0.016
		h0.047h0.016h0.047h0.016h0.047h0.016h0.125h0.047h0.016h0.047h0.016l0.047-0.016h0.016h0.047H257h0.047h0.016h0.031h0.031h0.031
		h0.031h0.031h0.031h0.031h0.016h0.047h0.016h0.047h0.031h0.047h0.016h0.031h0.031h0.031h0.031h0.031h0.031h0.031h0.031h0.031h0.016
		h0.047h0.016h0.031l0.031-0.016h0.031h0.031h0.031h0.016h0.047h0.016h0.063h0.016h0.047h0.016h0.047h0.016h0.031h0.031h0.031h0.031
		h0.031h0.031h0.031h0.016h0.047h0.016h0.047h0.016h0.047h0.016h0.172h0.063h0.016h0.047h0.016h0.047h0.016l0.031-0.016h0.031h0.031
		h0.031h0.031h0.016h0.047h0.016h0.047h0.016h0.047h0.016l0.234-0.016h0.016h0.047h0.016h0.047h0.016h0.047h0.016h0.031h0.031h0.031
		H260h0.047h0.016h0.047h0.016h0.047h0.016l0.172-0.016h0.016h0.047h0.016h0.047h0.016h0.047h0.016h0.047l0,0l0.047-0.016h0.016
		h0.047h0.016h0.047h0.016h0.047h0.016h0.234h0.016h0.047h0.063l0.063-0.016l0,0h0.063l0,0h0.063l0.484-0.016l0,0h0.063l0,0h0.063
		l0,0l0.063-0.016h0.063c7.641-0.328,15.125-1.266,22.406-2.781h0.016l0.047-0.016h0.016h0.047v-0.016l0.047-0.016h0.016h0.047
		h0.016l0.031-0.016h0.016l0.047-0.016h0.016h0.047h0.016l0.047-0.031h0.016h0.047h0.016l0.047-0.016h0.016l0.031-0.016h0.031h0.016
		l0.031-0.016h0.031l0.031-0.016h0.031h0.016h0.031l0.031-0.016l0.031-0.016h0.031h0.016h0.031l0.016-0.016l0.25-0.047h0.016
		l0.031-0.016h0.016l0.047-0.016h0.016h0.031h0.016l0.047-0.016v-0.016h0.047h0.016l0.563-0.125c4.297-0.969,7.016-5.25,6.047-9.547
		C291.875,379.781,288.578,377.25,284.906,377.25z" style="fill: rgb(75, 75, 75);"></path>
	<path class="st0" d="M335.313,158.031c2.438,0,4.844-1.125,6.406-3.219c2.656-3.531,1.938-8.531-1.594-11.188
		c-1.031-0.781-2.063-1.531-3.109-2.281l-0.047-0.031h-0.016l-0.047-0.031l0,0l-0.141-0.109l-0.016-0.016l-0.047-0.031l0,0
		l-0.047-0.031l0,0L336.5,141v-0.016l-0.047-0.031h-0.016l-0.031-0.031l-0.016-0.016l-0.031-0.016l-0.016-0.016l-0.047-0.031
		l-0.047-0.031l-0.047-0.031l-0.016-0.016l-0.031-0.016l-0.016-0.016l-0.031-0.016l-0.016-0.016l-0.031-0.016l-0.016-0.031
		L336,140.625h-0.016l-0.047-0.031h-0.016l-0.031-0.031h-0.016l-0.031-0.031h-0.016l-0.031-0.031l-0.016-0.016l-0.031-0.016
		l-0.016-0.016l-0.047-0.031l-0.016-0.016l-0.031-0.016l-0.016-0.016l-0.031-0.016l-0.031-0.016l-0.016-0.016l-0.031-0.016
		l-0.016-0.031h-0.031v-0.016l-0.078-0.047l0,0l-0.031-0.031h-0.031l-0.016-0.031h-0.016l-0.031-0.031h-0.016l-0.031-0.031h-0.016
		l-0.031-0.031h-0.016L335.078,140l0,0l-0.031-0.031h-0.016L335,139.938h-0.016l-0.031-0.031h-0.016l-0.203-0.141l-0.047-0.031l0,0
		l-0.047-0.031l0,0l-0.172-0.109l0,0l-0.047-0.031l0,0l-0.047-0.031l0,0l-0.266-0.188c-6.781-4.563-13.984-8.531-21.531-11.875
		c-1.047-0.469-2.156-0.688-3.234-0.688c-3.063,0-6,1.781-7.313,4.781c-1.781,4.031,0.047,8.766,4.078,10.547
		c8.625,3.813,16.844,8.625,24.422,14.313C331.969,157.5,333.656,158.031,335.313,158.031z" style="fill: rgb(75, 75, 75);"></path>
	<path class="st0" d="M257.984,131.594h0.063c4.391,0,8-3.547,8.063-7.938c0.078-4.375-3.375-7.969-7.734-8.063l-1.859-0.031l0,0
		h-0.047h-0.016h-0.047h-0.031h-0.031h-0.031h-0.047h-0.047h-0.016h-0.047h-0.031h-0.031h-0.031H256h-0.141h-0.031h-0.031h-0.031
		h-0.031h-0.031h-0.031h-0.031h-0.031h-0.031h-0.031H255.5h-0.031h-0.031h-0.031h-0.031h-0.031h-0.031h-0.031h-0.031h-0.031h-0.031
		h-0.016h-0.047h-0.016l-0.047,0.016h-0.016h-0.063h-0.016h-0.047h-0.016h-0.047h-0.016h-0.047h-0.016h-0.047h-0.016h-0.047h-0.016
		h-0.047h-0.016h-0.047h-0.016h-0.047h-0.031h-0.047h-0.016h-0.031h-0.031h-0.031h-0.031h-0.031h-0.031h-0.031h-0.031h-0.031
		l-0.031,0.016h-0.031h-0.031h-0.031h-0.047h-0.031h-0.031h-0.031h-0.031h-0.031h-0.031h-0.031h-0.031h-0.016h-0.031h-0.031h-0.031
		h-0.047h-0.016h-0.063h-0.016h-0.047h-0.016h-0.047h-0.016h-0.047h-0.016h-0.031h-0.031h-0.031h-0.031h-0.031h-0.031h-0.031h-0.063
		h-0.016h-0.031h-0.031l-0.031,0.016h-0.031h-0.031h-0.031h-0.031h-0.031h-0.031h-0.031h-0.016h-0.047h-0.016h-0.047H252.5
		l-0.063,0.016h-0.016h-0.047h-0.016h-0.047h-0.016h-0.031h-0.031h-0.031h-0.031h-0.031h-0.031h-0.031h-0.031h-0.016h-0.094l0,0
		h-0.047h-0.016h-0.031h-0.031h-0.031h-0.031h-0.031h-0.016l-0.047,0.016h-0.016h-0.047h-0.016h-0.031h-0.063h-0.031h-0.031h-0.031
		l-0.031,0.016h-0.031h-0.016h-0.047h-0.016h-0.031h-0.031h-0.031h-0.031h-0.031h-0.016h-0.047h-0.016h-0.094l0,0h-0.047h-0.016
		h-0.031h-0.031h-0.031l-0.016,0.016h-0.047h-0.016h-0.047h-0.016h-0.031h-0.031l-0.141,0.016l0,0h-0.047h-0.016h-0.047h-0.016
		h-0.031h-0.031h-0.031h-0.031h-0.031h-0.016h-0.047h-0.016l-0.203,0.016l0,0h-0.047h-0.016h-0.047l-0.016,0.016h-0.047h-0.016
		h-0.047l0,0h-0.266h-0.016h-0.047h-0.016l-0.031,0.016h-0.016h-0.047h-0.016h-0.047h-0.016l-0.203,0.016l0,0h-0.047h-0.016h-0.047
		h-0.016h-0.047h-0.016h-0.031h-0.016l-0.047,0.016h-0.016l-0.266,0.016l0,0h-0.047h-0.016h-0.047h-0.016h-0.047l0,0l-0.328,0.031
		h-0.063l0,0h-0.047h-0.016h-0.047l-0.453,0.031c-7.844,0.484-15.516,1.625-22.953,3.344c-4.297,1-6.969,5.297-5.969,9.594
		c0.844,3.703,4.141,6.203,7.781,6.203l1.813-0.203c9.156-2.125,18.625-3.219,28.109-3.219L257.984,131.594z" style="fill: rgb(75, 75, 75);"></path>
</g>
</svg>
