<!--?xml version="1.0" encoding="utf-8"?-->
<!-- Generator: Adobe Illustrator 22.1.0, SVG Export Plug-In . SVG Version: 6.00 Build 0)  -->
<svg version="1.1" id="_x31_4" xmlns="http://www.w3.org/2000/svg" xmlns:xlink="http://www.w3.org/1999/xlink" x="0px" y="0px" viewBox="0 0 800 720.786" style="enable-background:new 0 0 800 720.786;" xml:space="preserve">
<style type="text/css">
	.st0{fill:#040000;}
</style>
<g>
	<path class="st0" d="M26.072,67.449c0-10.253-6.84-58.144,0-64.978c6.83-6.849,37.613,41.042,42.736,44.46
		c5.149,3.424,75.256,17.101,82.092,17.101c6.836,0,47.884-42.755,61.554-42.755c13.69,0,0,66.697,1.713,83.798
		c1.712,17.088,23.942,61.562,47.885,80.374c23.948,18.812,42.761,32.489,42.761,32.489s179.546,70.102,198.372,155.624
		c18.794,85.485,46.153,64.979,49.578,58.143c3.411-6.841,22.23-87.234,88.933-99.198c66.692-11.959,133.375-23.923,123.123-73.513
		c-5.136-20.551,17.107-39.344,27.359-17.114c10.254,22.237,11.959,80.379-37.619,104.303
		c-49.595,23.961-119.716,8.56-147.076,71.834c-27.361,63.285-51.309,85.502-66.685,99.173c22.23,27.379,8.54,94.063-37.613,126.571
		c-46.185,32.47-71.839,17.087-82.092,27.348c-10.265,10.245-54.718,37.624-80.373,23.934c-17.107,0-30.777-6.847-23.943-18.812
		c0,0,3.418-10.252,11.959-15.383c8.566-5.129,13.689-13.676,13.689-13.676s-42.735-15.408-56.425-32.502
		c0,11.965-11.983,37.638-13.696,51.309c-1.705,13.67-23.923,70.101-51.282,47.884c-15.401,6.834-32.489-6.836-32.489-6.836
		c-11.978,0-15.402-17.107-8.56-23.961c3.429-10.253,13.69-17.087,22.237-17.087c8.54,0,8.54-8.547,8.54-8.547s-20.512,0-32.49,0
		c-11.958,0-23.942-10.26-23.942-10.26s-13.669-8.56-5.129-15.408c6.834-10.258,13.689-11.964,22.236-11.964
		c8.547,0,10.252-58.143,3.411-78.655c-6.829-20.538-22.23-83.81-30.772-97.481c-8.547-13.67-66.683-83.784-73.544-129.951
		c-6.836-46.178-10.247-66.703-10.247-66.703s-27.372-15.401-30.783-29.072c-13.689-13.677-29.072-35.926-27.359-66.69
		c1.705-30.797,8.54-44.467,17.101-59.856C27.779,76.003,26.072,67.449,26.072,67.449z"></path>
</g>
</svg>
